{
    "asset" : {
        "generator" : "Khronos glTF Blender I/O v1.5.17",
        "version" : "2.0"
    },
    "extensionsUsed" : [
        "KHR_materials_clearcoat"
    ],
    "scene" : 0,
    "scenes" : [
        {
            "name" : "Scene",
            "nodes" : [
                0,
                1
            ]
        }
    ],
    "nodes" : [
        {
            "mesh" : 0,
            "name" : "14P",
            "rotation" : [
                0.7071068286895752,
                0,
                0,
                0.7071067094802856
            ]
        },
        {
            "mesh" : 1,
            "name" : "water.001",
            "rotation" : [
                0.7071068286895752,
                0,
                0,
                0.7071067094802856
            ],
            "scale" : [
                0.3980000615119934,
                0.5879999399185181,
                0.9100000858306885
            ],
            "translation" : [
                0.06966903060674667,
                3.7397520542144775,
                2.6152002811431885
            ]
        }
    ],
    "materials" : [
        {
            "doubleSided" : true,
            "name" : "palette.097",
            "pbrMetallicRoughness" : {
                "baseColorTexture" : {
                    "index" : 0
                },
                "metallicFactor" : 0
            }
        },
        {
            "alphaMode" : "BLEND",
            "extensions" : {
                "KHR_materials_clearcoat" : {
                    "clearcoatFactor" : 0.25735294818878174,
                    "clearcoatRoughnessFactor" : 0.5
                }
            },
            "name" : "\u041c\u0430\u0442\u0435\u0440\u0438\u0430\u043b.007",
            "pbrMetallicRoughness" : {
                "baseColorFactor" : [
                    0,
                    0.16155138611793518,
                    0.8000000715255737,
                    0.5073529481887817
                ],
                "metallicFactor" : 0.9191176891326904,
                "roughnessFactor" : 0.9191181063652039
            }
        }
    ],
    "meshes" : [
        {
            "name" : "14P",
            "primitives" : [
                {
                    "attributes" : {
                        "POSITION" : 0,
                        "TEXCOORD_0" : 1
                    },
                    "indices" : 2,
                    "material" : 0
                }
            ]
        },
        {
            "name" : "water.008",
            "primitives" : [
                {
                    "attributes" : {
                        "POSITION" : 3,
                        "TEXCOORD_0" : 4
                    },
                    "indices" : 5,
                    "material" : 1
                }
            ]
        }
    ],
    "textures" : [
        {
            "sampler" : 0,
            "source" : 0
        }
    ],
    "images" : [
        {
            "bufferView" : 3,
            "mimeType" : "image/png",
            "name" : "14P"
        }
    ],
    "accessors" : [
        {
            "bufferView" : 0,
            "componentType" : 5126,
            "count" : 5338,
            "max" : [
                6.400000095367432,
                6.400000095367432,
                0
            ],
            "min" : [
                -6.400000095367432,
                -6.400000095367432,
                -11.100000381469727
            ],
            "type" : "VEC3"
        },
        {
            "bufferView" : 1,
            "componentType" : 5126,
            "count" : 5338,
            "type" : "VEC2"
        },
        {
            "bufferView" : 2,
            "componentType" : 5123,
            "count" : 10656,
            "type" : "SCALAR"
        },
        {
            "bufferView" : 4,
            "componentType" : 5126,
            "count" : 24,
            "max" : [
                7.839236736297607,
                6.400000095367432,
                0
            ],
            "min" : [
                -6.400000095367432,
                -6.400000095367432,
                -6.199999809265137
            ],
            "type" : "VEC3"
        },
        {
            "bufferView" : 5,
            "componentType" : 5126,
            "count" : 24,
            "type" : "VEC2"
        },
        {
            "bufferView" : 6,
            "componentType" : 5123,
            "count" : 36,
            "type" : "SCALAR"
        }
    ],
    "bufferViews" : [
        {
            "buffer" : 0,
            "byteLength" : 64056,
            "byteOffset" : 0
        },
        {
            "buffer" : 0,
            "byteLength" : 42704,
            "byteOffset" : 64056
        },
        {
            "buffer" : 0,
            "byteLength" : 21312,
            "byteOffset" : 106760
        },
        {
            "buffer" : 0,
            "byteLength" : 435,
            "byteOffset" : 128072
        },
        {
            "buffer" : 0,
            "byteLength" : 288,
            "byteOffset" : 128508
        },
        {
            "buffer" : 0,
            "byteLength" : 192,
            "byteOffset" : 128796
        },
        {
            "buffer" : 0,
            "byteLength" : 72,
            "byteOffset" : 128988
        }
    ],
    "samplers" : [
        {
            "magFilter" : 9729,
            "minFilter" : 9987
        }
    ],
    "buffers" : [
        {
            "byteLength" : 129060,
            "uri" : "data:application/octet-stream;base64,"
        }
    ]
}
