{
    "asset" : {
        "generator" : "Khronos glTF Blender I/O v1.5.17",
        "version" : "2.0"
    },
    "extensionsUsed" : [
        "KHR_materials_clearcoat"
    ],
    "scene" : 0,
    "scenes" : [
        {
            "name" : "Scene",
            "nodes" : [
                0,
                1
            ]
        }
    ],
    "nodes" : [
        {
            "mesh" : 0,
            "name" : "water.003",
            "rotation" : [
                0.7071068286895752,
                0,
                0,
                0.7071067094802856
            ],
            "scale" : [
                -0.04964546859264374,
                -0.003224579617381096,
                0.10780823230743408
            ],
            "translation" : [
                2.9608421325683594,
                6.5998454093933105,
                1.783848762512207
            ]
        },
        {
            "mesh" : 1,
            "name" : "4C",
            "rotation" : [
                0.7071068286895752,
                0,
                0,
                0.7071067094802856
            ]
        }
    ],
    "materials" : [
        {
            "alphaMode" : "BLEND",
            "extensions" : {
                "KHR_materials_clearcoat" : {
                    "clearcoatFactor" : 0.25735294818878174,
                    "clearcoatRoughnessFactor" : 0.5
                }
            },
            "name" : "\u041c\u0430\u0442\u0435\u0440\u0438\u0430\u043b.013",
            "pbrMetallicRoughness" : {
                "baseColorFactor" : [
                    0,
                    0.16155138611793518,
                    0.8000000715255737,
                    0.5073529481887817
                ],
                "metallicFactor" : 0.9191176891326904,
                "roughnessFactor" : 0.9191181063652039
            }
        },
        {
            "doubleSided" : true,
            "name" : "palette.048",
            "pbrMetallicRoughness" : {
                "baseColorTexture" : {
                    "index" : 0
                },
                "metallicFactor" : 0
            }
        }
    ],
    "meshes" : [
        {
            "name" : "water.014",
            "primitives" : [
                {
                    "attributes" : {
                        "POSITION" : 0,
                        "TEXCOORD_0" : 1
                    },
                    "indices" : 2,
                    "material" : 0
                }
            ]
        },
        {
            "name" : "4C",
            "primitives" : [
                {
                    "attributes" : {
                        "POSITION" : 3,
                        "TEXCOORD_0" : 4
                    },
                    "indices" : 5,
                    "material" : 1
                }
            ]
        }
    ],
    "textures" : [
        {
            "sampler" : 0,
            "source" : 0
        }
    ],
    "images" : [
        {
            "bufferView" : 6,
            "mimeType" : "image/png",
            "name" : "4C"
        }
    ],
    "accessors" : [
        {
            "bufferView" : 0,
            "componentType" : 5126,
            "count" : 24,
            "max" : [
                6.400000095367432,
                6.400000095367432,
                0
            ],
            "min" : [
                -6.400000095367432,
                -6.400000095367432,
                -6.199999809265137
            ],
            "type" : "VEC3"
        },
        {
            "bufferView" : 1,
            "componentType" : 5126,
            "count" : 24,
            "type" : "VEC2"
        },
        {
            "bufferView" : 2,
            "componentType" : 5123,
            "count" : 36,
            "type" : "SCALAR"
        },
        {
            "bufferView" : 3,
            "componentType" : 5126,
            "count" : 24210,
            "max" : [
                6.400000095367432,
                6.400000095367432,
                0
            ],
            "min" : [
                -6.400000095367432,
                -6.400000095367432,
                -8.399999618530273
            ],
            "type" : "VEC3"
        },
        {
            "bufferView" : 4,
            "componentType" : 5126,
            "count" : 24210,
            "type" : "VEC2"
        },
        {
            "bufferView" : 5,
            "componentType" : 5123,
            "count" : 48702,
            "type" : "SCALAR"
        }
    ],
    "bufferViews" : [
        {
            "buffer" : 0,
            "byteLength" : 288,
            "byteOffset" : 0
        },
        {
            "buffer" : 0,
            "byteLength" : 192,
            "byteOffset" : 288
        },
        {
            "buffer" : 0,
            "byteLength" : 72,
            "byteOffset" : 480
        },
        {
            "buffer" : 0,
            "byteLength" : 290520,
            "byteOffset" : 552
        },
        {
            "buffer" : 0,
            "byteLength" : 193680,
            "byteOffset" : 291072
        },
        {
            "buffer" : 0,
            "byteLength" : 97404,
            "byteOffset" : 484752
        },
        {
            "buffer" : 0,
            "byteLength" : 449,
            "byteOffset" : 582156
        }
    ],
    "samplers" : [
        {
            "magFilter" : 9729,
            "minFilter" : 9987
        }
    ],
    "buffers" : [
        {
            "byteLength" : 582608,
            "uri" : "data:application/octet-stream;base64,"
        }
    ]
}
