{
    "asset" : {
        "generator" : "Khronos glTF Blender I/O v1.5.17",
        "version" : "2.0"
    },
    "extensionsUsed" : [
        "KHR_materials_clearcoat"
    ],
    "scene" : 0,
    "scenes" : [
        {
            "name" : "Scene",
            "nodes" : [
                0,
                1,
                2,
                3,
                4
            ]
        }
    ],
    "nodes" : [
        {
            "mesh" : 0,
            "name" : "water.003",
            "rotation" : [
                0.4998631179332733,
                -0.5001369118690491,
                0.5001370310783386,
                0.49986302852630615
            ],
            "scale" : [
                0.008000075817108154,
                0.14799998700618744,
                0.18000005185604095
            ],
            "translation" : [
                1.1440260410308838,
                6.518458843231201,
                2.627939462661743
            ]
        },
        {
            "mesh" : 1,
            "name" : "water.001",
            "rotation" : [
                0.49761009216308594,
                -0.502378523349762,
                0.5023785829544067,
                0.49761003255844116
            ],
            "scale" : [
                0.008000075817108154,
                0.06800001859664917,
                0.18000006675720215
            ],
            "translation" : [
                -1.160454273223877,
                6.354854583740234,
                2.141026258468628
            ]
        },
        {
            "mesh" : 2,
            "name" : "water.002",
            "rotation" : [
                0.6557448506355286,
                -0.2645728290081024,
                0.2645728886127472,
                0.655744731426239
            ],
            "scale" : [
                0.008000075817108154,
                0.037999995052814484,
                0.18000005185604095
            ],
            "translation" : [
                2.192716598510742,
                6.518458843231201,
                2.4304375648498535
            ]
        },
        {
            "mesh" : 3,
            "name" : "water.004",
            "rotation" : [
                0.2636905014514923,
                -0.6561000943183899,
                0.6561002135276794,
                0.26369044184684753
            ],
            "scale" : [
                0.008000075817108154,
                0.037999995052814484,
                0.18000005185604095
            ],
            "translation" : [
                0.10080313682556152,
                6.518458843231201,
                2.4304375648498535
            ]
        },
        {
            "mesh" : 4,
            "name" : "5B.001",
            "rotation" : [
                0.7071068286895752,
                0,
                0,
                0.7071067094802856
            ]
        }
    ],
    "materials" : [
        {
            "alphaMode" : "BLEND",
            "extensions" : {
                "KHR_materials_clearcoat" : {
                    "clearcoatFactor" : 0.25735294818878174,
                    "clearcoatRoughnessFactor" : 0.5
                }
            },
            "name" : "\u041c\u0430\u0442\u0435\u0440\u0438\u0430\u043b.003",
            "pbrMetallicRoughness" : {
                "baseColorFactor" : [
                    0,
                    0.16155138611793518,
                    0.8000000715255737,
                    0.5073529481887817
                ],
                "metallicFactor" : 0.9191176891326904,
                "roughnessFactor" : 0.9191181063652039
            }
        },
        {
            "alphaMode" : "BLEND",
            "extensions" : {
                "KHR_materials_clearcoat" : {
                    "clearcoatFactor" : 0.25735294818878174,
                    "clearcoatRoughnessFactor" : 0.5
                }
            },
            "name" : "\u041c\u0430\u0442\u0435\u0440\u0438\u0430\u043b.004",
            "pbrMetallicRoughness" : {
                "baseColorFactor" : [
                    0,
                    0.16155138611793518,
                    0.8000000715255737,
                    0.5073529481887817
                ],
                "metallicFactor" : 0.9191176891326904,
                "roughnessFactor" : 0.9191181063652039
            }
        },
        {
            "alphaMode" : "BLEND",
            "extensions" : {
                "KHR_materials_clearcoat" : {
                    "clearcoatFactor" : 0.25735294818878174,
                    "clearcoatRoughnessFactor" : 0.5
                }
            },
            "name" : "\u041c\u0430\u0442\u0435\u0440\u0438\u0430\u043b.005",
            "pbrMetallicRoughness" : {
                "baseColorFactor" : [
                    0,
                    0.16155138611793518,
                    0.8000000715255737,
                    0.5073529481887817
                ],
                "metallicFactor" : 0.9191176891326904,
                "roughnessFactor" : 0.9191181063652039
            }
        },
        {
            "alphaMode" : "BLEND",
            "extensions" : {
                "KHR_materials_clearcoat" : {
                    "clearcoatFactor" : 0.25735294818878174,
                    "clearcoatRoughnessFactor" : 0.5
                }
            },
            "name" : "\u041c\u0430\u0442\u0435\u0440\u0438\u0430\u043b.006",
            "pbrMetallicRoughness" : {
                "baseColorFactor" : [
                    0,
                    0.16155138611793518,
                    0.8000000715255737,
                    0.5073529481887817
                ],
                "metallicFactor" : 0.9191176891326904,
                "roughnessFactor" : 0.9191181063652039
            }
        },
        {
            "doubleSided" : true,
            "name" : "palette.008",
            "pbrMetallicRoughness" : {
                "baseColorTexture" : {
                    "index" : 0
                },
                "metallicFactor" : 0
            }
        }
    ],
    "meshes" : [
        {
            "name" : "water.004",
            "primitives" : [
                {
                    "attributes" : {
                        "POSITION" : 0,
                        "TEXCOORD_0" : 1
                    },
                    "indices" : 2,
                    "material" : 0
                }
            ]
        },
        {
            "name" : "water.005",
            "primitives" : [
                {
                    "attributes" : {
                        "POSITION" : 3,
                        "TEXCOORD_0" : 4
                    },
                    "indices" : 2,
                    "material" : 1
                }
            ]
        },
        {
            "name" : "water.006",
            "primitives" : [
                {
                    "attributes" : {
                        "POSITION" : 5,
                        "TEXCOORD_0" : 6
                    },
                    "indices" : 2,
                    "material" : 2
                }
            ]
        },
        {
            "name" : "water.007",
            "primitives" : [
                {
                    "attributes" : {
                        "POSITION" : 7,
                        "TEXCOORD_0" : 8
                    },
                    "indices" : 2,
                    "material" : 3
                }
            ]
        },
        {
            "name" : "5B.001",
            "primitives" : [
                {
                    "attributes" : {
                        "POSITION" : 9,
                        "TEXCOORD_0" : 10
                    },
                    "indices" : 11,
                    "material" : 4
                }
            ]
        }
    ],
    "textures" : [
        {
            "sampler" : 0,
            "source" : 0
        }
    ],
    "images" : [
        {
            "bufferView" : 12,
            "mimeType" : "image/png",
            "name" : "5B"
        }
    ],
    "accessors" : [
        {
            "bufferView" : 0,
            "componentType" : 5126,
            "count" : 24,
            "max" : [
                6.400000095367432,
                6.400000095367432,
                0
            ],
            "min" : [
                -6.400000095367432,
                -6.400000095367432,
                -6.199999809265137
            ],
            "type" : "VEC3"
        },
        {
            "bufferView" : 1,
            "componentType" : 5126,
            "count" : 24,
            "type" : "VEC2"
        },
        {
            "bufferView" : 2,
            "componentType" : 5123,
            "count" : 36,
            "type" : "SCALAR"
        },
        {
            "bufferView" : 3,
            "componentType" : 5126,
            "count" : 24,
            "max" : [
                6.400000095367432,
                6.400000095367432,
                0
            ],
            "min" : [
                -6.400000095367432,
                -6.400000095367432,
                -6.199999809265137
            ],
            "type" : "VEC3"
        },
        {
            "bufferView" : 4,
            "componentType" : 5126,
            "count" : 24,
            "type" : "VEC2"
        },
        {
            "bufferView" : 5,
            "componentType" : 5126,
            "count" : 24,
            "max" : [
                6.400000095367432,
                6.400000095367432,
                0
            ],
            "min" : [
                -6.400000095367432,
                -6.400000095367432,
                -6.199999809265137
            ],
            "type" : "VEC3"
        },
        {
            "bufferView" : 6,
            "componentType" : 5126,
            "count" : 24,
            "type" : "VEC2"
        },
        {
            "bufferView" : 7,
            "componentType" : 5126,
            "count" : 24,
            "max" : [
                6.400000095367432,
                6.400000095367432,
                0
            ],
            "min" : [
                -6.400000095367432,
                -6.400000095367432,
                -6.199999809265137
            ],
            "type" : "VEC3"
        },
        {
            "bufferView" : 8,
            "componentType" : 5126,
            "count" : 24,
            "type" : "VEC2"
        },
        {
            "bufferView" : 9,
            "componentType" : 5126,
            "count" : 8724,
            "max" : [
                6.400000095367432,
                6.400000095367432,
                0
            ],
            "min" : [
                -6.400000095367432,
                -6.400000095367432,
                -9.899999618530273
            ],
            "type" : "VEC3"
        },
        {
            "bufferView" : 10,
            "componentType" : 5126,
            "count" : 8724,
            "type" : "VEC2"
        },
        {
            "bufferView" : 11,
            "componentType" : 5123,
            "count" : 19062,
            "type" : "SCALAR"
        }
    ],
    "bufferViews" : [
        {
            "buffer" : 0,
            "byteLength" : 288,
            "byteOffset" : 0
        },
        {
            "buffer" : 0,
            "byteLength" : 192,
            "byteOffset" : 288
        },
        {
            "buffer" : 0,
            "byteLength" : 72,
            "byteOffset" : 480
        },
        {
            "buffer" : 0,
            "byteLength" : 288,
            "byteOffset" : 552
        },
        {
            "buffer" : 0,
            "byteLength" : 192,
            "byteOffset" : 840
        },
        {
            "buffer" : 0,
            "byteLength" : 288,
            "byteOffset" : 1032
        },
        {
            "buffer" : 0,
            "byteLength" : 192,
            "byteOffset" : 1320
        },
        {
            "buffer" : 0,
            "byteLength" : 288,
            "byteOffset" : 1512
        },
        {
            "buffer" : 0,
            "byteLength" : 192,
            "byteOffset" : 1800
        },
        {
            "buffer" : 0,
            "byteLength" : 104688,
            "byteOffset" : 1992
        },
        {
            "buffer" : 0,
            "byteLength" : 69792,
            "byteOffset" : 106680
        },
        {
            "buffer" : 0,
            "byteLength" : 38124,
            "byteOffset" : 176472
        },
        {
            "buffer" : 0,
            "byteLength" : 435,
            "byteOffset" : 214596
        }
    ],
    "samplers" : [
        {
            "magFilter" : 9729,
            "minFilter" : 9987
        }
    ],
    "buffers" : [
        {
            "byteLength" : 215032,
            "uri" : "data:application/octet-stream;base64,"
        }
    ]
}
