{
    "asset" : {
        "generator" : "Khronos glTF Blender I/O v1.5.17",
        "version" : "2.0"
    },
    "extensionsUsed" : [
        "KHR_materials_clearcoat"
    ],
    "scene" : 0,
    "scenes" : [
        {
            "name" : "Scene",
            "nodes" : [
                0,
                1,
                2
            ]
        }
    ],
    "nodes" : [
        {
            "mesh" : 0,
            "name" : "water.003",
            "rotation" : [
                0.6621335744857788,
                -0.24815170466899872,
                0.2481517344713211,
                0.6621334552764893
            ],
            "scale" : [
                0.008000075817108154,
                0.06800001859664917,
                0.18000006675720215
            ],
            "translation" : [
                3.592815399169922,
                7.757565021514893,
                2.279395580291748
            ]
        },
        {
            "mesh" : 1,
            "name" : "water.001",
            "rotation" : [
                0.6621335744857788,
                -0.24815170466899872,
                0.2481517344713211,
                0.6621334552764893
            ],
            "scale" : [
                0.008000075817108154,
                0.06800001859664917,
                0.18000006675720215
            ],
            "translation" : [
                2.7431013584136963,
                7.757565021514893,
                3.108551502227783
            ]
        },
        {
            "mesh" : 2,
            "name" : "5D",
            "rotation" : [
                0.7071068286895752,
                0,
                0,
                0.7071067094802856
            ]
        }
    ],
    "materials" : [
        {
            "alphaMode" : "BLEND",
            "extensions" : {
                "KHR_materials_clearcoat" : {
                    "clearcoatFactor" : 0.25735294818878174,
                    "clearcoatRoughnessFactor" : 0.5
                }
            },
            "name" : "\u041c\u0430\u0442\u0435\u0440\u0438\u0430\u043b.018",
            "pbrMetallicRoughness" : {
                "baseColorFactor" : [
                    0,
                    0.16155138611793518,
                    0.8000000715255737,
                    0.5073529481887817
                ],
                "metallicFactor" : 0.9191176891326904,
                "roughnessFactor" : 0.9191181063652039
            }
        },
        {
            "alphaMode" : "BLEND",
            "extensions" : {
                "KHR_materials_clearcoat" : {
                    "clearcoatFactor" : 0.25735294818878174,
                    "clearcoatRoughnessFactor" : 0.5
                }
            },
            "name" : "\u041c\u0430\u0442\u0435\u0440\u0438\u0430\u043b.019",
            "pbrMetallicRoughness" : {
                "baseColorFactor" : [
                    0,
                    0.16155138611793518,
                    0.8000000715255737,
                    0.5073529481887817
                ],
                "metallicFactor" : 0.9191176891326904,
                "roughnessFactor" : 0.9191181063652039
            }
        },
        {
            "doubleSided" : true,
            "name" : "palette.057",
            "pbrMetallicRoughness" : {
                "baseColorTexture" : {
                    "index" : 0
                },
                "metallicFactor" : 0
            }
        }
    ],
    "meshes" : [
        {
            "name" : "water.019",
            "primitives" : [
                {
                    "attributes" : {
                        "POSITION" : 0,
                        "TEXCOORD_0" : 1
                    },
                    "indices" : 2,
                    "material" : 0
                }
            ]
        },
        {
            "name" : "water.020",
            "primitives" : [
                {
                    "attributes" : {
                        "POSITION" : 3,
                        "TEXCOORD_0" : 4
                    },
                    "indices" : 2,
                    "material" : 1
                }
            ]
        },
        {
            "name" : "5D",
            "primitives" : [
                {
                    "attributes" : {
                        "POSITION" : 5,
                        "TEXCOORD_0" : 6
                    },
                    "indices" : 7,
                    "material" : 2
                }
            ]
        }
    ],
    "textures" : [
        {
            "sampler" : 0,
            "source" : 0
        }
    ],
    "images" : [
        {
            "bufferView" : 8,
            "mimeType" : "image/png",
            "name" : "5D"
        }
    ],
    "accessors" : [
        {
            "bufferView" : 0,
            "componentType" : 5126,
            "count" : 24,
            "max" : [
                6.400000095367432,
                6.400000095367432,
                0
            ],
            "min" : [
                -6.400000095367432,
                -6.400000095367432,
                -6.199999809265137
            ],
            "type" : "VEC3"
        },
        {
            "bufferView" : 1,
            "componentType" : 5126,
            "count" : 24,
            "type" : "VEC2"
        },
        {
            "bufferView" : 2,
            "componentType" : 5123,
            "count" : 36,
            "type" : "SCALAR"
        },
        {
            "bufferView" : 3,
            "componentType" : 5126,
            "count" : 24,
            "max" : [
                6.400000095367432,
                6.400000095367432,
                0
            ],
            "min" : [
                -6.400000095367432,
                -6.400000095367432,
                -6.199999809265137
            ],
            "type" : "VEC3"
        },
        {
            "bufferView" : 4,
            "componentType" : 5126,
            "count" : 24,
            "type" : "VEC2"
        },
        {
            "bufferView" : 5,
            "componentType" : 5126,
            "count" : 12196,
            "max" : [
                6.400000095367432,
                6.400000095367432,
                0
            ],
            "min" : [
                -6.400000095367432,
                -6.400000095367432,
                -14.5
            ],
            "type" : "VEC3"
        },
        {
            "bufferView" : 6,
            "componentType" : 5126,
            "count" : 12196,
            "type" : "VEC2"
        },
        {
            "bufferView" : 7,
            "componentType" : 5123,
            "count" : 23268,
            "type" : "SCALAR"
        }
    ],
    "bufferViews" : [
        {
            "buffer" : 0,
            "byteLength" : 288,
            "byteOffset" : 0
        },
        {
            "buffer" : 0,
            "byteLength" : 192,
            "byteOffset" : 288
        },
        {
            "buffer" : 0,
            "byteLength" : 72,
            "byteOffset" : 480
        },
        {
            "buffer" : 0,
            "byteLength" : 288,
            "byteOffset" : 552
        },
        {
            "buffer" : 0,
            "byteLength" : 192,
            "byteOffset" : 840
        },
        {
            "buffer" : 0,
            "byteLength" : 146352,
            "byteOffset" : 1032
        },
        {
            "buffer" : 0,
            "byteLength" : 97568,
            "byteOffset" : 147384
        },
        {
            "buffer" : 0,
            "byteLength" : 46536,
            "byteOffset" : 244952
        },
        {
            "buffer" : 0,
            "byteLength" : 435,
            "byteOffset" : 291488
        }
    ],
    "samplers" : [
        {
            "magFilter" : 9729,
            "minFilter" : 9987
        }
    ],
    "buffers" : [
        {
            "byteLength" : 291924,
            "uri" : "data:application/octet-stream;base64,"
        }
    ]
}
