{
    "asset" : {
        "generator" : "Khronos glTF Blender I/O v1.5.17",
        "version" : "2.0"
    },
    "extensionsUsed" : [
        "KHR_materials_clearcoat"
    ],
    "scene" : 0,
    "scenes" : [
        {
            "name" : "Scene",
            "nodes" : [
                0,
                1,
                2,
                3,
                4
            ]
        }
    ],
    "nodes" : [
        {
            "mesh" : 0,
            "name" : "water.003",
            "rotation" : [
                0.6980919241905212,
                0.11255115270614624,
                0.11255113780498505,
                0.6980918049812317
            ],
            "scale" : [
                0.03090704046189785,
                0.05559378117322922,
                0.021021801978349686
            ],
            "translation" : [
                -3.2386364936828613,
                6.801116943359375,
                4.653853416442871
            ]
        },
        {
            "mesh" : 1,
            "name" : "7H",
            "rotation" : [
                0.7071068286895752,
                0,
                0,
                0.7071067094802856
            ]
        },
        {
            "mesh" : 2,
            "name" : "water.001",
            "rotation" : [
                0.7015784978866577,
                -0.0882478803396225,
                -0.0882478654384613,
                0.7015783786773682
            ],
            "scale" : [
                0.03090704046189785,
                0.05559378117322922,
                0.021021801978349686
            ],
            "translation" : [
                -2.3400044441223145,
                6.801116943359375,
                4.653853416442871
            ]
        },
        {
            "mesh" : 3,
            "name" : "water.002",
            "rotation" : [
                0.7071068286895752,
                0,
                0,
                0.7071067094802856
            ],
            "scale" : [
                0.020907040685415268,
                0.015593785792589188,
                0.04102180153131485
            ],
            "translation" : [
                -2.964733123779297,
                7.003361701965332,
                4.295152187347412
            ]
        },
        {
            "mesh" : 4,
            "name" : "water.004",
            "rotation" : [
                0.7071068286895752,
                0,
                0,
                0.7071067094802856
            ],
            "scale" : [
                0.020907040685415268,
                0.015593785792589188,
                0.04102180153131485
            ],
            "translation" : [
                -2.964733123779297,
                7.003361701965332,
                5.004495143890381
            ]
        }
    ],
    "materials" : [
        {
            "alphaMode" : "BLEND",
            "extensions" : {
                "KHR_materials_clearcoat" : {
                    "clearcoatFactor" : 0.25735294818878174,
                    "clearcoatRoughnessFactor" : 0.5
                }
            },
            "name" : "\u041c\u0430\u0442\u0435\u0440\u0438\u0430\u043b.020",
            "pbrMetallicRoughness" : {
                "baseColorFactor" : [
                    0,
                    0.16155138611793518,
                    0.8000000715255737,
                    0.5073529481887817
                ],
                "metallicFactor" : 0.9191176891326904,
                "roughnessFactor" : 0.9191181063652039
            }
        },
        {
            "doubleSided" : true,
            "name" : "palette.080",
            "pbrMetallicRoughness" : {
                "baseColorTexture" : {
                    "index" : 0
                },
                "metallicFactor" : 0
            }
        },
        {
            "alphaMode" : "BLEND",
            "extensions" : {
                "KHR_materials_clearcoat" : {
                    "clearcoatFactor" : 0.25735294818878174,
                    "clearcoatRoughnessFactor" : 0.5
                }
            },
            "name" : "\u041c\u0430\u0442\u0435\u0440\u0438\u0430\u043b.021",
            "pbrMetallicRoughness" : {
                "baseColorFactor" : [
                    0,
                    0.16155138611793518,
                    0.8000000715255737,
                    0.5073529481887817
                ],
                "metallicFactor" : 0.9191176891326904,
                "roughnessFactor" : 0.9191181063652039
            }
        },
        {
            "alphaMode" : "BLEND",
            "extensions" : {
                "KHR_materials_clearcoat" : {
                    "clearcoatFactor" : 0.25735294818878174,
                    "clearcoatRoughnessFactor" : 0.5
                }
            },
            "name" : "\u041c\u0430\u0442\u0435\u0440\u0438\u0430\u043b.022",
            "pbrMetallicRoughness" : {
                "baseColorFactor" : [
                    0,
                    0.16155138611793518,
                    0.8000000715255737,
                    0.5073529481887817
                ],
                "metallicFactor" : 0.9191176891326904,
                "roughnessFactor" : 0.9191181063652039
            }
        },
        {
            "alphaMode" : "BLEND",
            "extensions" : {
                "KHR_materials_clearcoat" : {
                    "clearcoatFactor" : 0.25735294818878174,
                    "clearcoatRoughnessFactor" : 0.5
                }
            },
            "name" : "\u041c\u0430\u0442\u0435\u0440\u0438\u0430\u043b.023",
            "pbrMetallicRoughness" : {
                "baseColorFactor" : [
                    0,
                    0.16155138611793518,
                    0.8000000715255737,
                    0.5073529481887817
                ],
                "metallicFactor" : 0.9191176891326904,
                "roughnessFactor" : 0.9191181063652039
            }
        }
    ],
    "meshes" : [
        {
            "name" : "water.021",
            "primitives" : [
                {
                    "attributes" : {
                        "POSITION" : 0,
                        "TEXCOORD_0" : 1
                    },
                    "indices" : 2,
                    "material" : 0
                }
            ]
        },
        {
            "name" : "7H",
            "primitives" : [
                {
                    "attributes" : {
                        "POSITION" : 3,
                        "TEXCOORD_0" : 4
                    },
                    "indices" : 5,
                    "material" : 1
                }
            ]
        },
        {
            "name" : "water.022",
            "primitives" : [
                {
                    "attributes" : {
                        "POSITION" : 6,
                        "TEXCOORD_0" : 7
                    },
                    "indices" : 2,
                    "material" : 2
                }
            ]
        },
        {
            "name" : "water.023",
            "primitives" : [
                {
                    "attributes" : {
                        "POSITION" : 8,
                        "TEXCOORD_0" : 9
                    },
                    "indices" : 2,
                    "material" : 3
                }
            ]
        },
        {
            "name" : "water.024",
            "primitives" : [
                {
                    "attributes" : {
                        "POSITION" : 10,
                        "TEXCOORD_0" : 11
                    },
                    "indices" : 2,
                    "material" : 4
                }
            ]
        }
    ],
    "textures" : [
        {
            "sampler" : 0,
            "source" : 0
        }
    ],
    "images" : [
        {
            "bufferView" : 6,
            "mimeType" : "image/png",
            "name" : "7H"
        }
    ],
    "accessors" : [
        {
            "bufferView" : 0,
            "componentType" : 5126,
            "count" : 24,
            "max" : [
                6.400000095367432,
                6.400000095367432,
                0
            ],
            "min" : [
                -6.400000095367432,
                -6.400000095367432,
                -6.199999809265137
            ],
            "type" : "VEC3"
        },
        {
            "bufferView" : 1,
            "componentType" : 5126,
            "count" : 24,
            "type" : "VEC2"
        },
        {
            "bufferView" : 2,
            "componentType" : 5123,
            "count" : 36,
            "type" : "SCALAR"
        },
        {
            "bufferView" : 3,
            "componentType" : 5126,
            "count" : 3275,
            "max" : [
                6.400000095367432,
                6.400000095367432,
                0
            ],
            "min" : [
                -6.400000095367432,
                -6.400000095367432,
                -7.400000095367432
            ],
            "type" : "VEC3"
        },
        {
            "bufferView" : 4,
            "componentType" : 5126,
            "count" : 3275,
            "type" : "VEC2"
        },
        {
            "bufferView" : 5,
            "componentType" : 5123,
            "count" : 6528,
            "type" : "SCALAR"
        },
        {
            "bufferView" : 7,
            "componentType" : 5126,
            "count" : 24,
            "max" : [
                6.400000095367432,
                6.400000095367432,
                0
            ],
            "min" : [
                -6.400000095367432,
                -6.400000095367432,
                -6.199999809265137
            ],
            "type" : "VEC3"
        },
        {
            "bufferView" : 8,
            "componentType" : 5126,
            "count" : 24,
            "type" : "VEC2"
        },
        {
            "bufferView" : 9,
            "componentType" : 5126,
            "count" : 24,
            "max" : [
                6.400000095367432,
                6.400000095367432,
                0
            ],
            "min" : [
                -6.400000095367432,
                -6.400000095367432,
                -6.199999809265137
            ],
            "type" : "VEC3"
        },
        {
            "bufferView" : 10,
            "componentType" : 5126,
            "count" : 24,
            "type" : "VEC2"
        },
        {
            "bufferView" : 11,
            "componentType" : 5126,
            "count" : 24,
            "max" : [
                6.400000095367432,
                6.400000095367432,
                0
            ],
            "min" : [
                -6.400000095367432,
                -6.400000095367432,
                -6.199999809265137
            ],
            "type" : "VEC3"
        },
        {
            "bufferView" : 12,
            "componentType" : 5126,
            "count" : 24,
            "type" : "VEC2"
        }
    ],
    "bufferViews" : [
        {
            "buffer" : 0,
            "byteLength" : 288,
            "byteOffset" : 0
        },
        {
            "buffer" : 0,
            "byteLength" : 192,
            "byteOffset" : 288
        },
        {
            "buffer" : 0,
            "byteLength" : 72,
            "byteOffset" : 480
        },
        {
            "buffer" : 0,
            "byteLength" : 39300,
            "byteOffset" : 552
        },
        {
            "buffer" : 0,
            "byteLength" : 26200,
            "byteOffset" : 39852
        },
        {
            "buffer" : 0,
            "byteLength" : 13056,
            "byteOffset" : 66052
        },
        {
            "buffer" : 0,
            "byteLength" : 435,
            "byteOffset" : 79108
        },
        {
            "buffer" : 0,
            "byteLength" : 288,
            "byteOffset" : 79544
        },
        {
            "buffer" : 0,
            "byteLength" : 192,
            "byteOffset" : 79832
        },
        {
            "buffer" : 0,
            "byteLength" : 288,
            "byteOffset" : 80024
        },
        {
            "buffer" : 0,
            "byteLength" : 192,
            "byteOffset" : 80312
        },
        {
            "buffer" : 0,
            "byteLength" : 288,
            "byteOffset" : 80504
        },
        {
            "buffer" : 0,
            "byteLength" : 192,
            "byteOffset" : 80792
        }
    ],
    "samplers" : [
        {
            "magFilter" : 9729,
            "minFilter" : 9987
        }
    ],
    "buffers" : [
        {
            "byteLength" : 80984,
            "uri" : "data:application/octet-stream;base64,"
        }
    ]
}
