<svg width="1200" height="1200" viewBox="0 0 1200 1200" fill="none" xmlns="http://www.w3.org/2000/svg">
<path fill-rule="evenodd" clip-rule="evenodd" d="M598.594 111L170.575 361.448L284.608 427.72L588.918 249.773C595.149 246.129 602.861 246.119 609.102 249.747L914.859 427.483L1029.16 361.448L598.594 111ZM628.571 936.728V662.223L906.197 501.831V776.439L628.571 936.728ZM628.571 982.957L936.243 805.321C942.436 801.745 946.251 795.139 946.251 787.991V478.69L1059 413.552V840.329L628.571 1089V982.957ZM253.749 479.233V787.346C253.749 794.465 257.533 801.049 263.687 804.635L568.527 982.288V1088.76L141 839.443V413.707L253.749 479.233Z" fill="#BAD34A"/>
<path d="M568.527 662.172L293.803 502.512V775.848L568.527 935.951V662.172Z" fill="#E2EDB2"/>
<path d="M599.062 290.22L874.904 450.566L598.593 610.198L324.386 450.838L599.062 290.22Z" fill="#E2EDB2"/>
</svg>
